<svg xmlns="http://www.w3.org/2000/svg" xmlns:xlink="http://www.w3.org/1999/xlink" width="100" zoomAndPan="magnify" viewBox="0 0 75 74.999997" height="100" preserveAspectRatio="xMidYMid meet" version="1.0"><defs><g/></defs><rect x="-7.5" width="90" fill="#ffffff" y="-7.5" height="89.999996" fill-opacity="1"/><rect x="-7.5" width="90" fill="#ffffff" y="-7.5" height="89.999996" fill-opacity="1"/><rect x="-7.5" width="90" fill="#282626" y="-7.5" height="89.999996" fill-opacity="1"/><g fill="#ffffff" fill-opacity="1"><g transform="translate(11.733399, 50.624995)"><g><path d="M 6.3125 0 L 3.671875 0 L 3.671875 -24.28125 L 7.90625 -24.28125 L 15.265625 -3.71875 L 15.609375 -3.71875 L 22.96875 -24.28125 L 27.0625 -24.28125 L 27.0625 0 L 24.34375 0 L 24.34375 -19.8125 L 23.9375 -19.875 L 16.765625 0 L 13.921875 0 L 6.734375 -19.875 L 6.3125 -19.8125 Z M 6.3125 0 "/></g></g></g><g fill="#ffffff" fill-opacity="1"><g transform="translate(42.462013, 50.624995)"><g><path d="M 10.609375 0.34375 C 9.085938 0.34375 7.71875 0.140625 6.5 -0.265625 C 5.289062 -0.679688 4.28125 -1.226562 3.46875 -1.90625 C 2.664062 -2.582031 2.0625 -3.328125 1.65625 -4.140625 L 3.21875 -6.03125 L 3.640625 -6.03125 C 5.140625 -3.488281 7.460938 -2.21875 10.609375 -2.21875 C 12.441406 -2.21875 13.800781 -2.597656 14.6875 -3.359375 C 15.582031 -4.128906 16.03125 -5.195312 16.03125 -6.5625 C 16.03125 -7.351562 15.878906 -8.023438 15.578125 -8.578125 C 15.285156 -9.140625 14.800781 -9.613281 14.125 -10 C 13.457031 -10.394531 12.539062 -10.738281 11.375 -11.03125 L 8.53125 -11.71875 C 6.414062 -12.226562 4.859375 -13.039062 3.859375 -14.15625 C 2.859375 -15.269531 2.359375 -16.679688 2.359375 -18.390625 C 2.359375 -19.597656 2.664062 -20.671875 3.28125 -21.609375 C 3.90625 -22.554688 4.816406 -23.296875 6.015625 -23.828125 C 7.210938 -24.359375 8.640625 -24.625 10.296875 -24.625 C 12.117188 -24.625 13.660156 -24.367188 14.921875 -23.859375 C 16.179688 -23.347656 17.1875 -22.578125 17.9375 -21.546875 L 16.546875 -19.671875 L 16.125 -19.671875 C 15.425781 -20.515625 14.597656 -21.132812 13.640625 -21.53125 C 12.691406 -21.9375 11.578125 -22.140625 10.296875 -22.140625 C 8.609375 -22.140625 7.335938 -21.8125 6.484375 -21.15625 C 5.628906 -20.507812 5.203125 -19.609375 5.203125 -18.453125 C 5.203125 -17.359375 5.515625 -16.484375 6.140625 -15.828125 C 6.773438 -15.179688 7.835938 -14.679688 9.328125 -14.328125 L 12.234375 -13.640625 C 14.597656 -13.085938 16.304688 -12.238281 17.359375 -11.09375 C 18.421875 -9.945312 18.953125 -8.476562 18.953125 -6.6875 C 18.953125 -5.320312 18.644531 -4.109375 18.03125 -3.046875 C 17.414062 -1.992188 16.484375 -1.164062 15.234375 -0.5625 C 13.984375 0.0390625 12.441406 0.34375 10.609375 0.34375 Z M 10.609375 0.34375 "/></g></g></g></svg>